# xmcd CD database file
#
# Track frame offsets:
#	150
#	20860
#	43677
#
# Disc length: 853 seconds
#
# Revision: 0
# Processed by: cddbd v1.5.1PL2 Copyright (c) Steve Scherf et al.
# Submitted via: CDex 1.51
#
DISCID=22035303
DTITLE=森高千里 - まひるの星
DYEAR=1999
DGENRE=JPop
TTITLE0=まひるの星
TTITLE1=雨（1999）
TTITLE2=まひるの星 -Original karaoke-
EXTD=YEAR: 1999
EXTT0=
EXTT1=
EXTT2=
PLAYORDER=
